<mxfile host="app.diagrams.net" agent="Mozilla/5.0 (Windows NT 10.0; Win64; x64) AppleWebKit/537.36 (KHTML, like Gecko) Chrome/131.0.0.0 Safari/537.36" version="24.9.0">
  <diagram name="Page-1" id="mVqq_JnOqRvBm01Spki3">
    <mxGraphModel dx="965" dy="510" grid="1" gridSize="10" guides="1" tooltips="1" connect="1" arrows="1" fold="1" page="1" pageScale="1" pageWidth="850" pageHeight="1100" math="0" shadow="0">
      <root>
        <mxCell id="0" />
        <mxCell id="1" parent="0" />
        <mxCell id="oNiWNb0G6sj8-6H3LfCO-18" value="" style="edgeStyle=orthogonalEdgeStyle;rounded=0;orthogonalLoop=1;jettySize=auto;html=1;" edge="1" parent="1" source="oNiWNb0G6sj8-6H3LfCO-19" target="oNiWNb0G6sj8-6H3LfCO-21">
          <mxGeometry relative="1" as="geometry" />
        </mxCell>
        <mxCell id="oNiWNb0G6sj8-6H3LfCO-19" value="start" style="strokeWidth=2;html=1;shape=mxgraph.flowchart.start_1;whiteSpace=wrap;" vertex="1" parent="1">
          <mxGeometry x="705" y="80" width="100" height="60" as="geometry" />
        </mxCell>
        <mxCell id="oNiWNb0G6sj8-6H3LfCO-20" value="" style="edgeStyle=orthogonalEdgeStyle;rounded=0;orthogonalLoop=1;jettySize=auto;html=1;" edge="1" parent="1" source="oNiWNb0G6sj8-6H3LfCO-21" target="oNiWNb0G6sj8-6H3LfCO-23">
          <mxGeometry relative="1" as="geometry" />
        </mxCell>
        <mxCell id="oNiWNb0G6sj8-6H3LfCO-21" value="กำหนดตัวแปรอุณหภูมิ องศา และ ฟาเรนไฮต์" style="whiteSpace=wrap;html=1;strokeWidth=2;" vertex="1" parent="1">
          <mxGeometry x="640" y="190" width="230" height="100" as="geometry" />
        </mxCell>
        <mxCell id="oNiWNb0G6sj8-6H3LfCO-22" value="" style="edgeStyle=orthogonalEdgeStyle;rounded=0;orthogonalLoop=1;jettySize=auto;html=1;" edge="1" parent="1" source="oNiWNb0G6sj8-6H3LfCO-23" target="oNiWNb0G6sj8-6H3LfCO-25">
          <mxGeometry relative="1" as="geometry" />
        </mxCell>
        <mxCell id="oNiWNb0G6sj8-6H3LfCO-23" value="กรอกค่าอุณหภูมิองศา" style="shape=parallelogram;perimeter=parallelogramPerimeter;whiteSpace=wrap;html=1;fixedSize=1;strokeWidth=2;" vertex="1" parent="1">
          <mxGeometry x="660" y="330" width="190" height="90" as="geometry" />
        </mxCell>
        <mxCell id="oNiWNb0G6sj8-6H3LfCO-24" value="" style="edgeStyle=orthogonalEdgeStyle;rounded=0;orthogonalLoop=1;jettySize=auto;html=1;" edge="1" parent="1" source="oNiWNb0G6sj8-6H3LfCO-25" target="oNiWNb0G6sj8-6H3LfCO-27">
          <mxGeometry relative="1" as="geometry" />
        </mxCell>
        <mxCell id="oNiWNb0G6sj8-6H3LfCO-25" value="สูตรแลงค่าองศาเป็นฟาเรนไฮต์&lt;div&gt;อุณหภูมิ เท่ากับ )9/5&lt;span style=&quot;white-space: pre;&quot;&gt;&#x9;&lt;/span&gt; * องศา) + 32&lt;/div&gt;" style="whiteSpace=wrap;html=1;strokeWidth=2;" vertex="1" parent="1">
          <mxGeometry x="660" y="510" width="190" height="60" as="geometry" />
        </mxCell>
        <mxCell id="oNiWNb0G6sj8-6H3LfCO-26" value="" style="edgeStyle=orthogonalEdgeStyle;rounded=0;orthogonalLoop=1;jettySize=auto;html=1;" edge="1" parent="1" source="oNiWNb0G6sj8-6H3LfCO-27" target="oNiWNb0G6sj8-6H3LfCO-28">
          <mxGeometry relative="1" as="geometry" />
        </mxCell>
        <mxCell id="oNiWNb0G6sj8-6H3LfCO-27" value="จะได้ค่าองศาเซลเซียส และค่าองศาฟาเรนไฮต์ออกมา" style="shape=parallelogram;perimeter=parallelogramPerimeter;whiteSpace=wrap;html=1;fixedSize=1;strokeWidth=2;" vertex="1" parent="1">
          <mxGeometry x="650" y="650" width="210" height="60" as="geometry" />
        </mxCell>
        <mxCell id="oNiWNb0G6sj8-6H3LfCO-28" value="end" style="strokeWidth=2;html=1;shape=mxgraph.flowchart.start_1;whiteSpace=wrap;" vertex="1" parent="1">
          <mxGeometry x="705" y="780" width="100" height="60" as="geometry" />
        </mxCell>
      </root>
    </mxGraphModel>
  </diagram>
</mxfile>
